<svg width="88" height="88" viewBox="0 0 88 88" fill="none" xmlns="http://www.w3.org/2000/svg">
<path d="M44 0C19.7226 0 0 19.7226 0 44C0 51.8035 2.1401 59.086 5.70924 65.4433L0.0709918 85.5713C-0.0190844 85.8934 -0.0231544 86.2335 0.0591878 86.5577C0.14153 86.8818 0.307408 87.1787 0.540281 87.4188C0.773155 87.6588 1.06489 87.8336 1.38639 87.9258C1.7079 88.0179 2.04794 88.0242 2.37262 87.944L23.3601 82.7429C29.5271 86.0352 36.525 88 44 88C68.2774 88 88 68.2774 88 44C88 19.7226 68.2774 0 44 0ZM44 3.82609C66.2095 3.82609 84.1739 21.7905 84.1739 44C84.1739 66.2095 66.2095 84.1739 44 84.1739C36.8797 84.1739 30.211 82.3176 24.4137 79.0737C23.9897 78.8368 23.4915 78.77 23.02 78.8869L4.64063 83.4416L9.56895 65.858C9.63947 65.6095 9.65895 65.3493 9.6262 65.0931C9.59345 64.8369 9.50915 64.59 9.3784 64.3672C5.85523 58.393 3.82609 51.4419 3.82609 44C3.82609 21.7905 21.7905 3.82609 44 3.82609ZM28.0119 21.0435C26.7856 21.0435 25.0342 21.4997 23.5954 23.0499C22.7313 23.981 19.1304 27.4895 19.1304 33.6576C19.1304 40.0883 23.5905 45.6373 24.1298 46.3502H24.1335V46.3539C24.0823 46.2867 24.818 47.352 25.7999 48.6294C26.7819 49.9068 28.155 51.5845 29.8801 53.4008C33.3302 57.0334 38.1811 61.2316 44.2018 63.7993C46.9744 64.9799 49.1617 65.6928 50.819 66.213C53.8901 67.1773 56.6874 67.0307 58.7887 66.7211C60.3616 66.4895 62.0914 65.7343 63.803 64.6512C65.5146 63.568 67.192 62.2212 67.9317 60.1749C68.4617 58.7079 68.731 57.3523 68.8285 56.2368C68.8772 55.679 68.8834 55.1867 68.8471 54.731C68.8109 54.2752 68.8496 53.9261 68.4249 53.2289C67.5343 51.7666 66.5256 51.7284 65.4732 51.2075C64.8884 50.9181 63.2235 50.1052 61.5537 49.3094C59.8857 48.5146 58.4414 47.8107 57.552 47.4935C56.99 47.2914 56.3038 47.0003 55.3139 47.1124C54.3239 47.2245 53.3461 47.9388 52.7768 48.7826C52.2373 49.5824 50.0651 52.1464 49.4029 52.9001C49.3941 52.8948 49.4515 52.9213 49.1899 52.7918C48.3708 52.3864 47.3692 52.0418 45.8869 51.2599C44.4046 50.4779 42.5504 49.3233 40.5214 47.5346V47.5309C37.5014 44.8723 35.3861 41.5343 34.7188 40.413C34.7637 40.3596 34.7134 40.4243 34.8084 40.3308L34.8122 40.3271C35.4942 39.6553 36.0986 38.853 36.6094 38.2646C37.3335 37.4304 37.6531 36.6949 37.9993 36.0078C38.6893 34.6384 38.3051 33.1315 37.9059 32.3387V32.3349C37.9335 32.3898 37.69 31.8525 37.4276 31.2327C37.1646 30.6111 36.8293 29.8053 36.4711 28.946C35.7548 27.2274 34.9552 25.2998 34.4796 24.1709V24.1671C33.9194 22.8373 33.1615 21.8793 32.1705 21.4171C31.1796 20.9549 30.3041 21.0863 30.2687 21.0846H30.2649C29.5578 21.052 28.7818 21.0435 28.0119 21.0435ZM28.0119 24.8696C28.7494 24.8696 29.4766 24.8786 30.0856 24.9069C30.7121 24.9382 30.6731 24.9407 30.5526 24.8845C30.4302 24.8274 30.5963 24.8089 30.9524 25.6542C31.4181 26.7597 32.2217 28.6942 32.9402 30.4181C33.2995 31.2801 33.6357 32.089 33.9042 32.7235C34.1727 33.358 34.3182 33.7122 34.4871 34.0499V34.0537L34.4908 34.0574C34.6564 34.3841 34.6417 34.1749 34.5842 34.2891C34.1805 35.0903 34.1258 35.287 33.7174 35.7575C33.0956 36.4738 32.4614 37.2726 32.1257 37.6033C31.832 37.8918 31.302 38.3413 30.9711 39.2211C30.6397 40.1023 30.7944 41.3114 31.3261 42.214C32.034 43.4158 34.3667 47.2126 37.9918 50.4042C40.2748 52.4168 42.4018 53.7487 44.1009 54.645C45.8 55.5413 47.1839 56.0648 47.4935 56.2181C48.2289 56.582 49.0326 56.8646 49.9671 56.7524C50.9015 56.6402 51.7072 56.0732 52.2201 55.4932L52.2238 55.4895C52.9064 54.7156 54.9347 52.3997 55.9079 50.9721C55.9492 50.9867 55.9357 50.9754 56.2592 51.0917V51.0954H56.2629C56.4106 51.148 58.2604 51.976 59.9096 52.7619C61.5589 53.5478 63.2329 54.3646 63.7768 54.6338C64.5618 55.0223 64.9327 55.2753 65.0285 55.2765C65.035 55.4448 65.0416 55.6272 65.0173 55.9042C64.9502 56.6726 64.7449 57.7361 64.3336 58.8747C64.1321 59.432 63.0826 60.5816 61.7592 61.4192C60.4357 62.2567 58.8248 62.8483 58.2283 62.9361C56.4346 63.2004 54.3049 63.2969 51.966 62.5625C50.3443 62.0535 48.3221 61.3945 45.7038 60.2796C40.3936 58.0149 35.8803 54.1612 32.6563 50.7666C31.0442 49.0694 29.7527 47.4894 28.8339 46.2942C27.9168 45.1011 27.5163 44.4803 27.1824 44.0411L27.1787 44.0374C26.586 43.2535 22.9565 38.2051 22.9565 33.6576C22.9565 28.8448 25.1919 26.9575 26.4015 25.6542C27.0365 24.97 27.7307 24.8696 28.0119 24.8696Z" fill="#848484"/>
</svg>
