<svg width="97" height="74" viewBox="0 0 97 74" fill="none" xmlns="http://www.w3.org/2000/svg">
<path d="M85.5297 0.0102442C83.0943 -0.0964496 80.6115 0.631353 78.5648 2.14306L48.0219 24.7173L23.2055 6.37353C22.8596 6.03559 22.4031 5.83438 21.9203 5.80712H22.4203L17.4906 2.15868C15.4427 0.643229 12.9562 -0.0886643 10.518 0.0180567C8.07975 0.124778 5.69175 1.06849 3.83827 2.89696C1.48375 5.21832 0.021862 8.46522 0.021862 12.0259V18.8931C-0.00728735 19.0886 -0.00728735 19.2874 0.021862 19.4829V66.2056C0.021862 70.0479 3.17949 73.2056 7.02186 73.2056H22.0219C22.5523 73.2055 23.061 72.9948 23.436 72.6197C23.8111 72.2447 24.0218 71.736 24.0219 71.2056V37.9516L46.8344 54.8149C47.1783 55.0687 47.5945 55.2056 48.0219 55.2056C48.4493 55.2056 48.8654 55.0687 49.2094 54.8149L72.0219 37.9516V71.2056C72.0219 71.736 72.2327 72.2447 72.6077 72.6197C72.9828 72.9948 73.4914 73.2055 74.0219 73.2056H89.0219C92.8642 73.2056 96.0219 70.0479 96.0219 66.2056V19.4438C96.0445 19.2714 96.0445 19.0967 96.0219 18.9243V12.0259C96.0219 8.50896 94.6028 5.27712 92.2797 2.95165C92.2125 2.88451 92.19 2.86592 92.2172 2.89306C92.2133 2.88913 92.2094 2.88523 92.2055 2.88134C90.3523 1.05691 87.9651 0.116938 85.5297 0.0102442ZM85.3109 4.00634C86.8235 4.06564 88.29 4.63933 89.4008 5.7329C89.4386 5.77024 89.4662 5.79844 89.4476 5.77978C91.0405 7.3743 92.0219 9.58278 92.0219 12.0259V18.1977L76.0219 30.022V9.20556C76.0227 9.13776 76.0201 9.06997 76.0141 9.00243L80.9398 5.36181H80.9437C82.241 4.40351 83.7983 3.94703 85.3109 4.00634ZM10.7367 4.01806C12.251 3.95878 13.8136 4.41298 15.1117 5.37353L20.0297 9.01024C20.0239 9.07518 20.0213 9.14036 20.0219 9.20556V30.022L4.02186 18.1977V12.0259C4.02186 9.55452 5.02538 7.34327 6.64686 5.74462C7.75738 4.64909 9.22241 4.07734 10.7367 4.01806ZM72.0219 11.9477V32.979L48.0219 50.7173L24.0219 32.979V11.9517L46.8344 28.8149C47.1783 29.0687 47.5945 29.2056 48.0219 29.2056C48.4493 29.2056 48.8654 29.0687 49.2094 28.8149L72.0219 11.9477ZM4.02186 23.1704L20.0219 34.9985V69.2056H7.02186C5.34024 69.2056 4.02186 67.8872 4.02186 66.2056V23.1704ZM92.0219 23.1704V66.2056C92.0219 67.8872 90.7035 69.2056 89.0219 69.2056H76.0219V34.9985L92.0219 23.1704Z" fill="#848484"/>
</svg>
