<svg width="50" height="52" viewBox="0 0 50 52" fill="none" xmlns="http://www.w3.org/2000/svg">
<path d="M25 0.277832C11.1937 0.277832 0 11.968 0 26.3866C0 38.6207 8.06667 48.8575 18.9417 51.6903C18.825 51.3379 18.75 50.9288 18.75 50.4219V45.9595C17.7354 45.9595 16.0354 45.9595 15.6083 45.9595C13.8979 45.9595 12.3771 45.1914 11.6396 43.7642C10.8208 42.178 10.6792 39.7521 8.65 38.2683C8.04792 37.7744 8.50625 37.2109 9.2 37.287C10.4812 37.6656 11.5437 38.5837 12.5437 39.9458C13.5396 41.3099 14.0083 41.6189 15.8687 41.6189C16.7708 41.6189 18.1208 41.5645 19.3917 41.3556C20.075 39.5432 21.2562 37.8745 22.7 37.0868C14.375 36.1926 10.4021 31.8673 10.4021 25.995C10.4021 23.4668 11.4333 21.0212 13.1854 18.9608C12.6104 16.9156 11.8875 12.7448 13.4063 11.1565C17.1521 11.1565 19.4167 13.6934 19.9604 14.3787C21.8271 13.7108 23.8771 13.3322 26.0312 13.3322C28.1896 13.3322 30.2479 13.7108 32.1187 14.3831C32.6562 13.7021 34.9229 11.1565 38.6771 11.1565C40.2021 12.7469 39.4708 16.9352 38.8896 18.9761C40.6312 21.0321 41.6563 23.4711 41.6563 25.995C41.6563 31.8629 37.6896 36.1861 29.3771 37.0847C31.6646 38.3314 33.3333 41.8343 33.3333 44.4734V50.4219C33.3333 50.6482 33.2854 50.8113 33.2604 51.005C43.0021 47.439 50 37.7787 50 26.3866C50 11.968 38.8062 0.277832 25 0.277832Z" fill="#A4BD1C"/>
</svg>
