<svg width="50" height="52" viewBox="0 0 50 52" fill="none" xmlns="http://www.w3.org/2000/svg">
<path d="M45.4545 0.25H4.54545C2.03409 0.25 0 2.34155 0 4.92386V46.9886C0 49.571 2.03409 51.6625 4.54545 51.6625H45.4545C47.9659 51.6625 50 49.571 50 46.9886V4.92386C50 2.34155 47.9659 0.25 45.4545 0.25ZM15.8045 42.3148H9.1V20.1326H15.8045V42.3148ZM12.3841 16.9614C10.2227 16.9614 8.475 15.1596 8.475 12.9419C8.475 10.7241 10.225 8.92469 12.3841 8.92469C14.5386 8.92469 16.2909 10.7265 16.2909 12.9419C16.2909 15.1596 14.5386 16.9614 12.3841 16.9614ZM40.9182 42.3148H34.2182V31.5275C34.2182 28.9545 34.1727 25.6454 30.7341 25.6454C27.2455 25.6454 26.7091 28.4474 26.7091 31.3405V42.3148H20.0091V20.1326H26.4409V23.1636H26.5318C27.4273 21.4203 29.6136 19.5811 32.875 19.5811C39.6636 19.5811 40.9182 24.1755 40.9182 30.1487V42.3148Z" fill="#A4BD1C"/>
</svg>
