<svg width="104" height="107" viewBox="0 0 104 107" fill="none" xmlns="http://www.w3.org/2000/svg">
    <path  class="tiago" d="M61.3038 3.47644C57.2139 2.47677 2.25728 3.33901 2 3.47644C5.23547 11.2508 8.05248 17.1651 15.2922 17.532H33.9525H52.6127C52.6127 17.532 51.5902 80.008 52.6127 89.0046C53.6352 98.0012 58.4069 101.074 67.9499 103.999C67.7745 104.358 68.1239 18.7225 67.9499 13.5335C67.7759 8.34459 65.3937 4.47612 61.3038 3.47644Z" fill="url(#paint0_linear_309_11)" stroke="white"/>
    <path class="pimenta" d="M92.5404 24C98.0062 23.9999 99 27.1935 99 31.129V67.871C98.3442 72.9827 96.6049 74.1387 92.5404 75H67.994C68.0005 69.3597 68.0024 64.3968 67.9963 60.6452H81.6087C83.8061 60.5891 84.8076 60.7224 85.2467 60.2876C85.7173 59.8216 85.5418 58.7032 85.5 56V43.5C85.5855 39.4412 85.3489 39.4306 82.5775 39.3064C82.2839 39.2932 81.9618 39.2788 81.6087 39.2581H35.8944C27.1774 39.0162 22.7324 34.3054 19 24H92.5404Z" fill="url(#paint1_linear_309_11)"/>
    <path class="pimenta" d="M51.974 60.7113H34.5C25.0136 62.2161 21.8299 66.9344 22.0776 75.0661H51.974C52.0454 68.9336 51.928 63.7931 51.974 60.7113Z" fill="url(#paint2_linear_309_11)"/>
    <path class="pimenta" d="M92.5404 24C98.0062 23.9999 99 27.1935 99 31.129V67.871C98.3442 72.9827 96.6049 74.1387 92.5404 75H67.994C68.0005 69.3597 68.0024 64.3968 67.9963 60.6452H81.6087C83.8061 60.5891 84.8076 60.7224 85.2467 60.2876C85.7173 59.8216 85.5418 58.7032 85.5 56V43.5C85.5855 39.4412 85.3489 39.4306 82.5775 39.3064C82.2839 39.2932 81.9618 39.2788 81.6087 39.2581H35.8944C27.1774 39.0162 22.7324 34.3054 19 24H92.5404Z" stroke="white"/>
    <path class="pimenta" d="M51.974 60.7113H34.5C25.0136 62.2161 21.8299 66.9344 22.0776 75.0661H51.974C52.0454 68.9336 51.928 63.7931 51.974 60.7113Z" stroke="white"/>
    <defs>
    <linearGradient id="paint0_linear_309_11" x1="59.2588" y1="10.9736" x2="6.25802" y2="44.5341" gradientUnits="userSpaceOnUse">
    <stop stop-color="#0B8460"/>
    <stop offset="0.41" stop-color="#20463A"/>
    <stop offset="0.724046" stop-color="#292C2A"/>
    </linearGradient>
    <linearGradient id="paint1_linear_309_11" x1="61.5342" y1="28.2903" x2="-14.8313" y2="55.5069" gradientUnits="userSpaceOnUse">
    <stop stop-color="#A4BD1C"/>
    <stop offset="0.546125" stop-color="#303514"/>
    </linearGradient>
    <linearGradient id="paint2_linear_309_11" x1="61.5342" y1="28.2903" x2="-14.8313" y2="55.5069" gradientUnits="userSpaceOnUse">
    <stop stop-color="#A4BD1C"/>
    <stop offset="0.546125" stop-color="#303514"/>
    </linearGradient>
    </defs>
</svg>
